<mxfile host="app.diagrams.net" agent="Mozilla/5.0 (Windows NT 10.0; Win64; x64) AppleWebKit/537.36 (KHTML, like Gecko) Chrome/140.0.0.0 Safari/537.36" version="28.2.0">
  <diagram name="Page-1" id="74e2e168-ea6b-b213-b513-2b3c1d86103e">
    <mxGraphModel dx="1827" dy="1893" grid="1" gridSize="10" guides="1" tooltips="1" connect="1" arrows="1" fold="1" page="1" pageScale="1" pageWidth="1100" pageHeight="850" background="none" math="0" shadow="0">
      <root>
        <mxCell id="0" />
        <mxCell id="1" parent="0" />
        <mxCell id="9iy6A6iOUr_-d6wuEB2l-59" value="" style="rounded=0;whiteSpace=wrap;html=1;" vertex="1" parent="1">
          <mxGeometry x="1155" y="409" width="910" height="400" as="geometry" />
        </mxCell>
        <mxCell id="9iy6A6iOUr_-d6wuEB2l-44" style="edgeStyle=orthogonalEdgeStyle;rounded=0;orthogonalLoop=1;jettySize=auto;html=1;exitX=0.5;exitY=1;exitDx=0;exitDy=0;entryX=0.5;entryY=0;entryDx=0;entryDy=0;" edge="1" parent="1" source="9iy6A6iOUr_-d6wuEB2l-38" target="9iy6A6iOUr_-d6wuEB2l-43">
          <mxGeometry relative="1" as="geometry" />
        </mxCell>
        <mxCell id="9iy6A6iOUr_-d6wuEB2l-38" value="卡片转换" style="swimlane;whiteSpace=wrap;html=1;startSize=40;fontSize=16;" vertex="1" parent="1">
          <mxGeometry x="1185" y="479" width="250" height="180" as="geometry" />
        </mxCell>
        <mxCell id="9iy6A6iOUr_-d6wuEB2l-48" value="sacs卡片数据解析转换" style="rounded=0;whiteSpace=wrap;html=1;flipV=0;flipH=1;" vertex="1" parent="9iy6A6iOUr_-d6wuEB2l-38">
          <mxGeometry x="70" y="52" width="130" height="60" as="geometry" />
        </mxCell>
        <mxCell id="9iy6A6iOUr_-d6wuEB2l-54" style="edgeStyle=orthogonalEdgeStyle;rounded=0;orthogonalLoop=1;jettySize=auto;html=1;exitX=0.25;exitY=1;exitDx=0;exitDy=0;entryX=0.5;entryY=0;entryDx=0;entryDy=0;" edge="1" parent="1" source="9iy6A6iOUr_-d6wuEB2l-39" target="9iy6A6iOUr_-d6wuEB2l-45">
          <mxGeometry relative="1" as="geometry" />
        </mxCell>
        <mxCell id="9iy6A6iOUr_-d6wuEB2l-39" value="预处理" style="swimlane;whiteSpace=wrap;html=1;startSize=40;fontSize=16;" vertex="1" parent="1">
          <mxGeometry x="1485" y="479" width="250" height="180" as="geometry" />
        </mxCell>
        <mxCell id="9iy6A6iOUr_-d6wuEB2l-50" value="载荷处理" style="rounded=0;whiteSpace=wrap;html=1;" vertex="1" parent="9iy6A6iOUr_-d6wuEB2l-39">
          <mxGeometry x="16" y="112" width="100" height="50" as="geometry" />
        </mxCell>
        <mxCell id="9iy6A6iOUr_-d6wuEB2l-49" value="工况处理" style="rounded=0;whiteSpace=wrap;html=1;flipV=0;flipH=1;" vertex="1" parent="9iy6A6iOUr_-d6wuEB2l-39">
          <mxGeometry x="16" y="52" width="100" height="50" as="geometry" />
        </mxCell>
        <mxCell id="9iy6A6iOUr_-d6wuEB2l-51" value="计算文件生成" style="rounded=0;whiteSpace=wrap;html=1;flipV=0;flipH=1;" vertex="1" parent="9iy6A6iOUr_-d6wuEB2l-39">
          <mxGeometry x="136" y="52" width="100" height="50" as="geometry" />
        </mxCell>
        <mxCell id="9iy6A6iOUr_-d6wuEB2l-56" style="edgeStyle=orthogonalEdgeStyle;rounded=0;orthogonalLoop=1;jettySize=auto;html=1;exitX=0.5;exitY=1;exitDx=0;exitDy=0;entryX=0.5;entryY=0;entryDx=0;entryDy=0;" edge="1" parent="1" source="9iy6A6iOUr_-d6wuEB2l-40" target="9iy6A6iOUr_-d6wuEB2l-47">
          <mxGeometry relative="1" as="geometry" />
        </mxCell>
        <mxCell id="9iy6A6iOUr_-d6wuEB2l-40" value="后处理" style="swimlane;whiteSpace=wrap;html=1;startSize=40;fontSize=16;" vertex="1" parent="1">
          <mxGeometry x="1785" y="479" width="250" height="180" as="geometry" />
        </mxCell>
        <mxCell id="9iy6A6iOUr_-d6wuEB2l-52" value="结果文件解析" style="rounded=0;whiteSpace=wrap;html=1;flipV=0;flipH=1;" vertex="1" parent="9iy6A6iOUr_-d6wuEB2l-40">
          <mxGeometry x="18" y="52" width="100" height="50" as="geometry" />
        </mxCell>
        <mxCell id="9iy6A6iOUr_-d6wuEB2l-53" value="生成表图" style="rounded=0;whiteSpace=wrap;html=1;flipV=0;flipH=1;" vertex="1" parent="9iy6A6iOUr_-d6wuEB2l-40">
          <mxGeometry x="138" y="52" width="100" height="50" as="geometry" />
        </mxCell>
        <mxCell id="9iy6A6iOUr_-d6wuEB2l-58" style="edgeStyle=orthogonalEdgeStyle;rounded=0;orthogonalLoop=1;jettySize=auto;html=1;entryX=0;entryY=0.5;entryDx=0;entryDy=0;" edge="1" parent="1" source="9iy6A6iOUr_-d6wuEB2l-43" target="9iy6A6iOUr_-d6wuEB2l-39">
          <mxGeometry relative="1" as="geometry">
            <Array as="points">
              <mxPoint x="1455" y="739" />
              <mxPoint x="1455" y="569" />
            </Array>
          </mxGeometry>
        </mxCell>
        <mxCell id="9iy6A6iOUr_-d6wuEB2l-43" value="中间数据库" style="shape=document;whiteSpace=wrap;html=1;boundedLbl=1;" vertex="1" parent="1">
          <mxGeometry x="1260" y="709" width="100" height="60" as="geometry" />
        </mxCell>
        <mxCell id="9iy6A6iOUr_-d6wuEB2l-67" style="edgeStyle=orthogonalEdgeStyle;rounded=0;orthogonalLoop=1;jettySize=auto;html=1;entryX=0.5;entryY=0;entryDx=0;entryDy=0;exitX=0.504;exitY=0.837;exitDx=0;exitDy=0;exitPerimeter=0;" edge="1" parent="1" source="9iy6A6iOUr_-d6wuEB2l-45" target="9iy6A6iOUr_-d6wuEB2l-61">
          <mxGeometry relative="1" as="geometry" />
        </mxCell>
        <mxCell id="9iy6A6iOUr_-d6wuEB2l-45" value="网格文件" style="shape=document;whiteSpace=wrap;html=1;boundedLbl=1;" vertex="1" parent="1">
          <mxGeometry x="1497" y="709" width="100" height="60" as="geometry" />
        </mxCell>
        <mxCell id="9iy6A6iOUr_-d6wuEB2l-68" style="edgeStyle=orthogonalEdgeStyle;rounded=0;orthogonalLoop=1;jettySize=auto;html=1;entryX=0.5;entryY=0;entryDx=0;entryDy=0;exitX=0.494;exitY=0.885;exitDx=0;exitDy=0;exitPerimeter=0;" edge="1" parent="1" source="9iy6A6iOUr_-d6wuEB2l-46" target="9iy6A6iOUr_-d6wuEB2l-61">
          <mxGeometry relative="1" as="geometry">
            <mxPoint x="1673" y="769" as="sourcePoint" />
          </mxGeometry>
        </mxCell>
        <mxCell id="9iy6A6iOUr_-d6wuEB2l-46" value="求解文件" style="shape=document;whiteSpace=wrap;html=1;boundedLbl=1;" vertex="1" parent="1">
          <mxGeometry x="1623" y="709" width="100" height="60" as="geometry" />
        </mxCell>
        <mxCell id="9iy6A6iOUr_-d6wuEB2l-72" style="edgeStyle=orthogonalEdgeStyle;rounded=0;orthogonalLoop=1;jettySize=auto;html=1;entryX=1;entryY=0.5;entryDx=0;entryDy=0;" edge="1" parent="1" source="9iy6A6iOUr_-d6wuEB2l-47" target="9iy6A6iOUr_-d6wuEB2l-66">
          <mxGeometry relative="1" as="geometry">
            <Array as="points">
              <mxPoint x="2145" y="729" />
              <mxPoint x="2145" y="277" />
              <mxPoint x="2025" y="277" />
            </Array>
          </mxGeometry>
        </mxCell>
        <mxCell id="9iy6A6iOUr_-d6wuEB2l-47" value="结果数据库" style="shape=document;whiteSpace=wrap;html=1;boundedLbl=1;" vertex="1" parent="1">
          <mxGeometry x="1860" y="699" width="100" height="60" as="geometry" />
        </mxCell>
        <mxCell id="9iy6A6iOUr_-d6wuEB2l-55" style="edgeStyle=orthogonalEdgeStyle;rounded=0;orthogonalLoop=1;jettySize=auto;html=1;exitX=0.75;exitY=1;exitDx=0;exitDy=0;entryX=0.5;entryY=0;entryDx=0;entryDy=0;" edge="1" parent="1" source="9iy6A6iOUr_-d6wuEB2l-39" target="9iy6A6iOUr_-d6wuEB2l-46">
          <mxGeometry relative="1" as="geometry" />
        </mxCell>
        <mxCell id="9iy6A6iOUr_-d6wuEB2l-60" value="FEA&lt;div&gt;Devastator（SALOME）&lt;/div&gt;" style="text;html=1;align=center;verticalAlign=middle;whiteSpace=wrap;rounded=0;labelBorderColor=none;fontSize=20;strokeColor=none;" vertex="1" parent="1">
          <mxGeometry x="1376.5" y="415" width="450" height="70" as="geometry" />
        </mxCell>
        <mxCell id="9iy6A6iOUr_-d6wuEB2l-65" style="edgeStyle=orthogonalEdgeStyle;rounded=0;orthogonalLoop=1;jettySize=auto;html=1;entryX=0;entryY=0.5;entryDx=0;entryDy=0;exitX=0.75;exitY=0;exitDx=0;exitDy=0;" edge="1" parent="1" source="9iy6A6iOUr_-d6wuEB2l-61" target="9iy6A6iOUr_-d6wuEB2l-40">
          <mxGeometry relative="1" as="geometry">
            <mxPoint x="1775" y="869" as="sourcePoint" />
            <Array as="points">
              <mxPoint x="1753" y="569" />
            </Array>
          </mxGeometry>
        </mxCell>
        <mxCell id="9iy6A6iOUr_-d6wuEB2l-61" value="code_aster" style="rounded=0;whiteSpace=wrap;html=1;labelBorderColor=none;fontSize=20;" vertex="1" parent="1">
          <mxGeometry x="1302.75" y="884" width="600" height="120" as="geometry" />
        </mxCell>
        <mxCell id="9iy6A6iOUr_-d6wuEB2l-70" style="edgeStyle=orthogonalEdgeStyle;rounded=0;orthogonalLoop=1;jettySize=auto;html=1;entryX=0.5;entryY=0;entryDx=0;entryDy=0;" edge="1" parent="1" source="9iy6A6iOUr_-d6wuEB2l-66" target="9iy6A6iOUr_-d6wuEB2l-59">
          <mxGeometry relative="1" as="geometry" />
        </mxCell>
        <mxCell id="9iy6A6iOUr_-d6wuEB2l-74" style="edgeStyle=orthogonalEdgeStyle;rounded=0;orthogonalLoop=1;jettySize=auto;html=1;exitX=0.75;exitY=0;exitDx=0;exitDy=0;entryX=0.75;entryY=1;entryDx=0;entryDy=0;" edge="1" parent="1" source="9iy6A6iOUr_-d6wuEB2l-66" target="9iy6A6iOUr_-d6wuEB2l-71">
          <mxGeometry relative="1" as="geometry" />
        </mxCell>
        <mxCell id="9iy6A6iOUr_-d6wuEB2l-66" value="" style="rounded=0;whiteSpace=wrap;html=1;labelBorderColor=none;fontSize=20;" vertex="1" parent="1">
          <mxGeometry x="1310" y="199" width="600" height="155" as="geometry" />
        </mxCell>
        <mxCell id="9iy6A6iOUr_-d6wuEB2l-73" style="edgeStyle=orthogonalEdgeStyle;rounded=0;orthogonalLoop=1;jettySize=auto;html=1;exitX=0.25;exitY=1;exitDx=0;exitDy=0;entryX=0.25;entryY=0;entryDx=0;entryDy=0;" edge="1" parent="1" source="9iy6A6iOUr_-d6wuEB2l-71" target="9iy6A6iOUr_-d6wuEB2l-66">
          <mxGeometry relative="1" as="geometry" />
        </mxCell>
        <mxCell id="9iy6A6iOUr_-d6wuEB2l-71" value="用户请求" style="rounded=0;whiteSpace=wrap;html=1;labelBorderColor=none;fontSize=20;" vertex="1" parent="1">
          <mxGeometry x="1310" y="30" width="600" height="120" as="geometry" />
        </mxCell>
        <mxCell id="9iy6A6iOUr_-d6wuEB2l-75" value="Backend" style="text;html=1;align=center;verticalAlign=middle;whiteSpace=wrap;rounded=0;labelBorderColor=none;fontSize=20;strokeColor=none;" vertex="1" parent="1">
          <mxGeometry x="1436.5" y="209" width="348.5" height="50" as="geometry" />
        </mxCell>
        <mxCell id="9iy6A6iOUr_-d6wuEB2l-76" value="工况处理" style="rounded=0;whiteSpace=wrap;html=1;flipV=0;flipH=1;" vertex="1" parent="1">
          <mxGeometry x="1385" y="269" width="100" height="50" as="geometry" />
        </mxCell>
        <mxCell id="9iy6A6iOUr_-d6wuEB2l-77" value="任务分配" style="rounded=0;whiteSpace=wrap;html=1;flipV=0;flipH=1;" vertex="1" parent="1">
          <mxGeometry x="1552.75" y="269" width="100" height="50" as="geometry" />
        </mxCell>
      </root>
    </mxGraphModel>
  </diagram>
</mxfile>
